<svg xmlns="http://www.w3.org/2000/svg" viewBox="-3 -3 1196 1006" width="1196" height="1006" role="img" aria-label="Go Rob Lacy Inc. — People | Systems | Greater Results"><title>Go Rob Lacy Inc.</title><defs>
<linearGradient id="gGold" gradientUnits="userSpaceOnUse" x1="60" y1="620" x2="1120" y2="10">
 <stop offset="0" stop-color="#855100"/><stop offset=".2" stop-color="#BD8414"/><stop offset=".42" stop-color="#E2AB32"/><stop offset=".55" stop-color="#F8CF5E"/><stop offset=".68" stop-color="#E8B23A"/><stop offset=".86" stop-color="#C28817"/><stop offset="1" stop-color="#976103"/></linearGradient>
<linearGradient id="gGoldBar" x1="0" y1="0" x2="0" y2="1"><stop offset="0" stop-color="#FFE391"/><stop offset=".45" stop-color="#E2AE3A"/><stop offset="1" stop-color="#94600A"/></linearGradient>
<linearGradient id="gGoldText" x1="0" y1="0" x2="0" y2="1"><stop offset="0" stop-color="#FFE08A"/><stop offset=".5" stop-color="#E0AA34"/><stop offset="1" stop-color="#9A6405"/></linearGradient>
<linearGradient id="gNavy" gradientUnits="userSpaceOnUse" x1="0" y1="170" x2="0" y2="620"><stop offset="0" stop-color="#1E55B3"/><stop offset=".4" stop-color="#0C2A68"/><stop offset="1" stop-color="#061840"/></linearGradient>
<linearGradient id="gWhite" gradientUnits="userSpaceOnUse" x1="0" y1="220" x2="0" y2="610"><stop offset="0" stop-color="#FFFFFF"/><stop offset="1" stop-color="#D3D8E0"/></linearGradient>
<linearGradient id="gWord" gradientUnits="userSpaceOnUse" x1="0" y1="672" x2="0" y2="806"><stop offset="0" stop-color="#1A4BA6"/><stop offset=".45" stop-color="#0A2760"/><stop offset="1" stop-color="#05163A"/></linearGradient>
<clipPath id="ce0"><path d="M811.29,140.91 C652.17,198.05 497.52,273.45 347.89,350.02 C501.83,230.41 665.42,113.66 830.58,9.45 C898.82,211.57 969.07,424.02 1116.78,583.34 C964.90,482.32 861.44,314.88 811.29,140.91 Z"/></clipPath><clipPath id="ce1"><path d="M64.15,613.77 C266.11,475.17 474.22,335.50 693.44,224.62 C534.84,338.99 382.83,468.75 253.53,614.34 C190.62,614.85 126.72,615.99 64.15,613.77 Z"/></clipPath><clipPath id="ce2"><path d="M824.29,613.62 C748.64,497.93 787.06,349.29 813.92,226.12 C837.98,379.64 902.16,556.53 1061.62,613.09 C983.85,614.72 902.83,613.53 824.29,613.62 Z"/></clipPath><clipPath id="ce3"><path d="M633.14,613.12 C662.52,460.21 737.13,318.09 802.56,175.12 C808.87,316.49 740.71,466.75 788.37,612.26 C737.73,616.55 684.24,614.39 633.14,613.12 Z"/></clipPath><clipPath id="ce4"><path d="M260.12,613.66 C411.42,447.29 583.48,278.92 786.19,178.06 C658.76,313.70 528.76,454.03 426.86,613.27 C372.04,615.24 314.94,614.98 260.12,613.66 Z"/></clipPath><clipPath id="cwGO"><path d="M208.97999572753906 804.52001953125Q193.86000061035156 804.52001953125 181.0800018310547 799.6600036621094Q168.3000030517578 794.7999877929688 158.8499984741211 785.8899841308594Q149.39999389648438 776.97998046875 144.18000030517578 765.0999755859375Q138.9600067138672 753.219970703125 138.9600067138672 739.0Q138.9600067138672 724.780029296875 144.18000030517578 712.9000244140625Q149.39999389648438 701.02001953125 158.8499984741211 692.1100158691406Q168.3000030517578 683.2000122070312 181.0800018310547 678.3399963378906Q193.86000061035156 673.47998046875 208.97999572753906 673.47998046875Q224.27999877929688 673.47998046875 236.97000122070312 678.3399963378906Q249.66000366210938 683.2000122070312 259.02000427246094 692.1100158691406Q268.3800048828125 701.02001953125 273.69000244140625 712.9000244140625Q279.0 724.780029296875 279.0 739.0Q279.0 753.219970703125 273.69000244140625 765.1899719238281Q268.3800048828125 777.1599731445312 259.02000427246094 785.97998046875Q249.66000366210938 794.7999877929688 236.97000122070312 799.6600036621094Q224.27999877929688 804.52001953125 208.97999572753906 804.52001953125ZM78.4800033569336 804.52001953125Q63.540000915527344 804.52001953125 50.760000228881836 799.75Q37.97999954223633 794.97998046875 28.710000038146973 786.1600036621094Q19.440000534057617 777.3400268554688 14.220000267028809 765.3700256347656Q9.0 753.4000244140625 9.0 739.0Q9.0 724.5999755859375 14.220000267028809 712.6299743652344Q19.440000534057617 700.6599731445312 28.800000190734863 691.8399963378906Q38.15999984741211 683.02001953125 51.03000068664551 678.25Q63.900001525878906 673.47998046875 79.19999694824219 673.47998046875Q97.0199966430664 673.47998046875 111.05999755859375 679.4199829101562Q125.0999984741211 685.3599853515625 134.27999877929688 696.52001953125L111.5999984741211 717.0399780273438Q105.12000274658203 710.02001953125 97.6500015258789 706.510009765625Q90.18000030517578 703.0 81.0 703.0Q72.9000015258789 703.0 66.2400016784668 705.5199890136719Q59.58000183105469 708.0399780273438 54.900001525878906 712.8099975585938Q50.220001220703125 717.5800170898438 47.61000061035156 724.1499938964844Q45.0 730.719970703125 45.0 739.0Q45.0 746.9199829101562 47.61000061035156 753.5799865722656Q50.220001220703125 760.239990234375 54.900001525878906 765.010009765625Q59.58000183105469 769.780029296875 66.1500015258789 772.3900146484375Q72.72000122070312 775.0 80.63999938964844 775.0Q88.55999755859375 775.0 96.12000274658203 772.47998046875Q97.91999816894531 771.760009765625 99.9000015258789 770.8599853515625V736.2999877929688H131.39999389648438V788.5Q120.5999984741211 796.239990234375 106.38000106811523 800.3800048828125Q92.16000366210938 804.52001953125 78.4800033569336 804.52001953125ZM208.97999572753906 775.0Q216.17999267578125 775.0 222.38999938964844 772.4800109863281Q228.60000610351562 769.9600219726562 233.19000244140625 765.1900024414062Q237.77999877929688 760.4199829101562 240.38999938964844 753.7599792480469Q243.0 747.0999755859375 243.0 739.0Q243.0 730.719970703125 240.38999938964844 724.1499938964844Q237.77999877929688 717.5800170898438 233.19000244140625 712.8099975585938Q228.60000610351562 708.0399780273438 222.38999938964844 705.5199890136719Q216.17999267578125 703.0 208.97999572753906 703.0Q201.77999877929688 703.0 195.56999969482422 705.5199890136719Q189.36000061035156 708.0399780273438 184.7699966430664 712.8099975585938Q180.17999267578125 717.5800170898438 177.56999969482422 724.1499938964844Q174.9600067138672 730.719970703125 174.9600067138672 739.0Q174.9600067138672 747.0999755859375 177.56999969482422 753.7599792480469Q180.17999267578125 760.4199829101562 184.7699966430664 765.1900024414062Q189.36000061035156 769.9600219726562 195.56999969482422 772.4800109863281Q201.77999877929688 775.0 208.97999572753906 775.0Z"/></clipPath><clipPath id="cwROB"><path d="M323.0 802.0V676.0H379.3399963378906Q406.8800048828125 676.0 421.72998046875 688.510009765625Q433.3872375488281 698.3303833007812 435.8935546875 713.752197265625Q436.0735168457031 713.324462890625 436.260009765625 712.9000244140625Q441.4800109863281 701.02001953125 450.9300079345703 692.1100158691406Q460.3800048828125 683.2000122070312 473.1600036621094 678.3399963378906Q485.94000244140625 673.47998046875 501.05999755859375 673.47998046875Q516.3599853515625 673.47998046875 529.0499877929688 678.3399963378906Q541.739990234375 683.2000122070312 551.1000061035156 692.1100158691406Q560.4600219726562 701.02001953125 565.77001953125 712.9000244140625Q571.0800170898438 724.780029296875 571.0800170898438 739.0Q571.0800170898438 753.219970703125 565.77001953125 765.1899719238281Q560.4600219726562 777.1599731445312 551.1000061035156 785.97998046875Q541.739990234375 794.7999877929688 529.0499877929688 799.6600036621094Q516.3599853515625 804.52001953125 501.05999755859375 804.52001953125Q485.94000244140625 804.52001953125 473.1600036621094 799.6600036621094Q460.3800048828125 794.7999877929688 450.9300079345703 785.8899841308594Q441.4800109863281 776.97998046875 436.260009765625 765.0999755859375Q432.1152648925781 755.6671142578125 431.2615051269531 744.759033203125Q430.548583984375 746.0458374023438 429.739990234375 747.280029296875Q423.44000244140625 757.0 411.9200134277344 762.4000244140625L439.1000061035156 802.0H400.94000244140625L378.0799865722656 768.52001953125H358.6400146484375V802.0ZM571.1199951171875 802.0V676.0H635.5599975585938Q660.4000244140625 676.0 672.6400146484375 685.0899963378906Q684.8800048828125 694.1799926757812 684.8800048828125 708.9400024414062Q684.8800048828125 718.6599731445312 679.8400268554688 725.8599853515625Q675.3400268554688 732.3400268554688 667.780029296875 736.2999877929688Q669.0399780273438 736.6599731445312 670.1199951171875 737.02001953125Q680.02001953125 741.1599731445312 685.510009765625 748.8099975585938Q691.0 756.4600219726562 691.0 767.4400024414062Q691.0 783.8200073242188 677.7699890136719 792.9100036621094Q664.5399780273438 802.0 639.1599731445312 802.0ZM501.05999755859375 775.0Q508.260009765625 775.0 514.4700012207031 772.4800109863281Q520.6799926757812 769.9600219726562 525.2699890136719 765.1900024414062Q529.8599853515625 760.4199829101562 532.4700012207031 753.7599792480469Q535.0800170898438 747.0999755859375 535.0800170898438 739.0Q535.0800170898438 730.719970703125 532.4700012207031 724.1499938964844Q529.8599853515625 717.5800170898438 525.2699890136719 712.8099975585938Q520.6799926757812 708.0399780273438 514.4700012207031 705.5199890136719Q508.260009765625 703.0 501.05999755859375 703.0Q493.8599853515625 703.0 487.6499938964844 705.5199890136719Q481.44000244140625 708.0399780273438 476.8500061035156 712.8099975585938Q472.260009765625 717.5800170898438 469.65000915527344 724.1499938964844Q467.0400085449219 730.719970703125 467.0400085449219 739.0Q467.0400085449219 747.0999755859375 469.65000915527344 753.7599792480469Q472.260009765625 760.4199829101562 476.8500061035156 765.1900024414062Q481.44000244140625 769.9600219726562 487.6499938964844 772.4800109863281Q493.8599853515625 775.0 501.05999755859375 775.0ZM358.6400146484375 740.97998046875H378.44000244140625Q389.6000061035156 740.97998046875 395.0899963378906 736.1199951171875Q400.5799865722656 731.260009765625 400.5799865722656 722.6199951171875Q400.5799865722656 713.7999877929688 395.0899963378906 708.9400024414062Q389.6000061035156 704.0800170898438 378.44000244140625 704.0800170898438H358.6400146484375ZM606.4000244140625 776.260009765625H636.280029296875Q645.4600219726562 776.260009765625 650.2300109863281 773.1100158691406Q655.0 769.9600219726562 655.0 763.4800109863281Q655.0 757.0 650.2300109863281 753.8500061035156Q645.4600219726562 750.7000122070312 636.280029296875 750.7000122070312H606.4000244140625ZM606.4000244140625 726.0399780273438H630.8800048828125Q639.8800048828125 726.0399780273438 644.3800048828125 722.97998046875Q648.8800048828125 719.9199829101562 648.8800048828125 713.7999877929688Q648.8800048828125 707.6799926757812 644.3800048828125 704.7099914550781Q639.8800048828125 701.739990234375 630.8800048828125 701.739990234375H606.4000244140625Z"/></clipPath><clipPath id="cwLACY"><path d="M729.0 802.0V676.0H764.6400146484375V773.739990234375H822.3014526367188L865.4466552734375 676.0H900.5466918945312L956.3466796875 802.0H919.2666625976562L909.3666381835938 777.52001953125H856.086669921875L846.1866455078125 802.0ZM1012.3333129882812 804.52001953125Q997.393310546875 804.52001953125 984.7033081054688 799.75Q972.0133056640625 794.97998046875 962.7433166503906 786.1600036621094Q953.4733276367188 777.3400268554688 948.2533264160156 765.3700256347656Q943.0333251953125 753.4000244140625 943.0333251953125 739.0Q943.0333251953125 724.5999755859375 948.2533264160156 712.6299743652344Q953.4733276367188 700.6599731445312 962.7433166503906 691.8399963378906Q972.0133056640625 683.02001953125 984.7033081054688 678.25Q997.393310546875 673.47998046875 1012.3333129882812 673.47998046875Q1029.7933349609375 673.47998046875 1043.5633544921875 679.5999755859375Q1049.892822265625 682.4130859375 1055.25244140625 686.3670654296875L1049.06005859375 676.0H1086.6800537109375L1116.3800048828125 726.0399780273438L1146.43994140625 676.0H1181.0L1132.760009765625 756.8200073242188V802.0H1097.1199951171875V756.4600219726562L1063.419189453125 700.0394287109375L1043.8333740234375 717.760009765625Q1037.71337890625 710.5599975585938 1030.4233703613281 706.7799987792969Q1023.1333618164062 703.0 1014.1333618164062 703.0Q1006.393310546875 703.0 999.913330078125 705.5199890136719Q993.433349609375 708.0399780273438 988.8433532714844 712.8099975585938Q984.2533569335938 717.5800170898438 981.6433410644531 724.2400207519531Q979.0333251953125 730.9000244140625 979.0333251953125 739.0Q979.0333251953125 747.0999755859375 981.6433410644531 753.7599792480469Q984.2533569335938 760.4199829101562 988.8433532714844 765.1900024414062Q993.433349609375 769.9600219726562 999.913330078125 772.4800109863281Q1006.393310546875 775.0 1014.1333618164062 775.0Q1023.1333618164062 775.0 1030.4233703613281 771.2200012207031Q1037.71337890625 767.4400024414062 1043.8333740234375 760.239990234375L1066.5133056640625 780.760009765625Q1057.3333740234375 792.0999755859375 1043.5633544921875 798.3099975585938Q1029.7933349609375 804.52001953125 1012.3333129882812 804.52001953125ZM898.9266967773438 751.239990234375 882.7266845703125 710.9199829101562 866.5266723632812 751.239990234375Z"/></clipPath></defs><g><path d="M811.29,140.91 C652.17,198.05 497.52,273.45 347.89,350.02 C501.83,230.41 665.42,113.66 830.58,9.45 C898.82,211.57 969.07,424.02 1116.78,583.34 C964.90,482.32 861.44,314.88 811.29,140.91 Z" fill="url(#gGold)"/><path d="M811.29,140.91 C652.17,198.05 497.52,273.45 347.89,350.02 C501.83,230.41 665.42,113.66 830.58,9.45 C898.82,211.57 969.07,424.02 1116.78,583.34 C964.90,482.32 861.44,314.88 811.29,140.91 Z" fill="none" stroke="#FFF0B8" stroke-opacity="0.75" stroke-width="4" clip-path="url(#ce0)"/><path d="M64.15,613.77 C266.11,475.17 474.22,335.50 693.44,224.62 C534.84,338.99 382.83,468.75 253.53,614.34 C190.62,614.85 126.72,615.99 64.15,613.77 Z" fill="url(#gGold)"/><path d="M64.15,613.77 C266.11,475.17 474.22,335.50 693.44,224.62 C534.84,338.99 382.83,468.75 253.53,614.34 C190.62,614.85 126.72,615.99 64.15,613.77 Z" fill="none" stroke="#FFF0B8" stroke-opacity="0.75" stroke-width="4" clip-path="url(#ce1)"/><path d="M824.29,613.62 C748.64,497.93 787.06,349.29 813.92,226.12 C837.98,379.64 902.16,556.53 1061.62,613.09 C983.85,614.72 902.83,613.53 824.29,613.62 Z" fill="url(#gGold)"/><path d="M824.29,613.62 C748.64,497.93 787.06,349.29 813.92,226.12 C837.98,379.64 902.16,556.53 1061.62,613.09 C983.85,614.72 902.83,613.53 824.29,613.62 Z" fill="none" stroke="#FFF0B8" stroke-opacity="0.75" stroke-width="4" clip-path="url(#ce2)"/><path d="M633.14,613.12 C662.52,460.21 737.13,318.09 802.56,175.12 C808.87,316.49 740.71,466.75 788.37,612.26 C737.73,616.55 684.24,614.39 633.14,613.12 Z" fill="url(#gNavy)"/><path d="M633.14,613.12 C662.52,460.21 737.13,318.09 802.56,175.12 C808.87,316.49 740.71,466.75 788.37,612.26 C737.73,616.55 684.24,614.39 633.14,613.12 Z" fill="none" stroke="#4A86E8" stroke-opacity="0.55" stroke-width="4" clip-path="url(#ce3)"/><path d="M260.12,613.66 C411.42,447.29 583.48,278.92 786.19,178.06 C658.76,313.70 528.76,454.03 426.86,613.27 C372.04,615.24 314.94,614.98 260.12,613.66 Z" fill="url(#gNavy)"/><path d="M260.12,613.66 C411.42,447.29 583.48,278.92 786.19,178.06 C658.76,313.70 528.76,454.03 426.86,613.27 C372.04,615.24 314.94,614.98 260.12,613.66 Z" fill="none" stroke="#4A86E8" stroke-opacity="0.55" stroke-width="4" clip-path="url(#ce4)"/><path d="M464.00,606.13 C550.06,466.83 661.08,344.50 769.99,223.12 C710.20,345.38 646.04,471.93 615.31,606.81 C565.54,608.13 513.23,609.49 464.00,606.13 Z" fill="url(#gWhite)"/></g><g><path d="M208.97999572753906 804.52001953125Q193.86000061035156 804.52001953125 181.0800018310547 799.6600036621094Q168.3000030517578 794.7999877929688 158.8499984741211 785.8899841308594Q149.39999389648438 776.97998046875 144.18000030517578 765.0999755859375Q138.9600067138672 753.219970703125 138.9600067138672 739.0Q138.9600067138672 724.780029296875 144.18000030517578 712.9000244140625Q149.39999389648438 701.02001953125 158.8499984741211 692.1100158691406Q168.3000030517578 683.2000122070312 181.0800018310547 678.3399963378906Q193.86000061035156 673.47998046875 208.97999572753906 673.47998046875Q224.27999877929688 673.47998046875 236.97000122070312 678.3399963378906Q249.66000366210938 683.2000122070312 259.02000427246094 692.1100158691406Q268.3800048828125 701.02001953125 273.69000244140625 712.9000244140625Q279.0 724.780029296875 279.0 739.0Q279.0 753.219970703125 273.69000244140625 765.1899719238281Q268.3800048828125 777.1599731445312 259.02000427246094 785.97998046875Q249.66000366210938 794.7999877929688 236.97000122070312 799.6600036621094Q224.27999877929688 804.52001953125 208.97999572753906 804.52001953125ZM78.4800033569336 804.52001953125Q63.540000915527344 804.52001953125 50.760000228881836 799.75Q37.97999954223633 794.97998046875 28.710000038146973 786.1600036621094Q19.440000534057617 777.3400268554688 14.220000267028809 765.3700256347656Q9.0 753.4000244140625 9.0 739.0Q9.0 724.5999755859375 14.220000267028809 712.6299743652344Q19.440000534057617 700.6599731445312 28.800000190734863 691.8399963378906Q38.15999984741211 683.02001953125 51.03000068664551 678.25Q63.900001525878906 673.47998046875 79.19999694824219 673.47998046875Q97.0199966430664 673.47998046875 111.05999755859375 679.4199829101562Q125.0999984741211 685.3599853515625 134.27999877929688 696.52001953125L111.5999984741211 717.0399780273438Q105.12000274658203 710.02001953125 97.6500015258789 706.510009765625Q90.18000030517578 703.0 81.0 703.0Q72.9000015258789 703.0 66.2400016784668 705.5199890136719Q59.58000183105469 708.0399780273438 54.900001525878906 712.8099975585938Q50.220001220703125 717.5800170898438 47.61000061035156 724.1499938964844Q45.0 730.719970703125 45.0 739.0Q45.0 746.9199829101562 47.61000061035156 753.5799865722656Q50.220001220703125 760.239990234375 54.900001525878906 765.010009765625Q59.58000183105469 769.780029296875 66.1500015258789 772.3900146484375Q72.72000122070312 775.0 80.63999938964844 775.0Q88.55999755859375 775.0 96.12000274658203 772.47998046875Q97.91999816894531 771.760009765625 99.9000015258789 770.8599853515625V736.2999877929688H131.39999389648438V788.5Q120.5999984741211 796.239990234375 106.38000106811523 800.3800048828125Q92.16000366210938 804.52001953125 78.4800033569336 804.52001953125ZM208.97999572753906 775.0Q216.17999267578125 775.0 222.38999938964844 772.4800109863281Q228.60000610351562 769.9600219726562 233.19000244140625 765.1900024414062Q237.77999877929688 760.4199829101562 240.38999938964844 753.7599792480469Q243.0 747.0999755859375 243.0 739.0Q243.0 730.719970703125 240.38999938964844 724.1499938964844Q237.77999877929688 717.5800170898438 233.19000244140625 712.8099975585938Q228.60000610351562 708.0399780273438 222.38999938964844 705.5199890136719Q216.17999267578125 703.0 208.97999572753906 703.0Q201.77999877929688 703.0 195.56999969482422 705.5199890136719Q189.36000061035156 708.0399780273438 184.7699966430664 712.8099975585938Q180.17999267578125 717.5800170898438 177.56999969482422 724.1499938964844Q174.9600067138672 730.719970703125 174.9600067138672 739.0Q174.9600067138672 747.0999755859375 177.56999969482422 753.7599792480469Q180.17999267578125 760.4199829101562 184.7699966430664 765.1900024414062Q189.36000061035156 769.9600219726562 195.56999969482422 772.4800109863281Q201.77999877929688 775.0 208.97999572753906 775.0Z" fill="url(#gWord)"/><path d="M208.97999572753906 804.52001953125Q193.86000061035156 804.52001953125 181.0800018310547 799.6600036621094Q168.3000030517578 794.7999877929688 158.8499984741211 785.8899841308594Q149.39999389648438 776.97998046875 144.18000030517578 765.0999755859375Q138.9600067138672 753.219970703125 138.9600067138672 739.0Q138.9600067138672 724.780029296875 144.18000030517578 712.9000244140625Q149.39999389648438 701.02001953125 158.8499984741211 692.1100158691406Q168.3000030517578 683.2000122070312 181.0800018310547 678.3399963378906Q193.86000061035156 673.47998046875 208.97999572753906 673.47998046875Q224.27999877929688 673.47998046875 236.97000122070312 678.3399963378906Q249.66000366210938 683.2000122070312 259.02000427246094 692.1100158691406Q268.3800048828125 701.02001953125 273.69000244140625 712.9000244140625Q279.0 724.780029296875 279.0 739.0Q279.0 753.219970703125 273.69000244140625 765.1899719238281Q268.3800048828125 777.1599731445312 259.02000427246094 785.97998046875Q249.66000366210938 794.7999877929688 236.97000122070312 799.6600036621094Q224.27999877929688 804.52001953125 208.97999572753906 804.52001953125ZM78.4800033569336 804.52001953125Q63.540000915527344 804.52001953125 50.760000228881836 799.75Q37.97999954223633 794.97998046875 28.710000038146973 786.1600036621094Q19.440000534057617 777.3400268554688 14.220000267028809 765.3700256347656Q9.0 753.4000244140625 9.0 739.0Q9.0 724.5999755859375 14.220000267028809 712.6299743652344Q19.440000534057617 700.6599731445312 28.800000190734863 691.8399963378906Q38.15999984741211 683.02001953125 51.03000068664551 678.25Q63.900001525878906 673.47998046875 79.19999694824219 673.47998046875Q97.0199966430664 673.47998046875 111.05999755859375 679.4199829101562Q125.0999984741211 685.3599853515625 134.27999877929688 696.52001953125L111.5999984741211 717.0399780273438Q105.12000274658203 710.02001953125 97.6500015258789 706.510009765625Q90.18000030517578 703.0 81.0 703.0Q72.9000015258789 703.0 66.2400016784668 705.5199890136719Q59.58000183105469 708.0399780273438 54.900001525878906 712.8099975585938Q50.220001220703125 717.5800170898438 47.61000061035156 724.1499938964844Q45.0 730.719970703125 45.0 739.0Q45.0 746.9199829101562 47.61000061035156 753.5799865722656Q50.220001220703125 760.239990234375 54.900001525878906 765.010009765625Q59.58000183105469 769.780029296875 66.1500015258789 772.3900146484375Q72.72000122070312 775.0 80.63999938964844 775.0Q88.55999755859375 775.0 96.12000274658203 772.47998046875Q97.91999816894531 771.760009765625 99.9000015258789 770.8599853515625V736.2999877929688H131.39999389648438V788.5Q120.5999984741211 796.239990234375 106.38000106811523 800.3800048828125Q92.16000366210938 804.52001953125 78.4800033569336 804.52001953125ZM208.97999572753906 775.0Q216.17999267578125 775.0 222.38999938964844 772.4800109863281Q228.60000610351562 769.9600219726562 233.19000244140625 765.1900024414062Q237.77999877929688 760.4199829101562 240.38999938964844 753.7599792480469Q243.0 747.0999755859375 243.0 739.0Q243.0 730.719970703125 240.38999938964844 724.1499938964844Q237.77999877929688 717.5800170898438 233.19000244140625 712.8099975585938Q228.60000610351562 708.0399780273438 222.38999938964844 705.5199890136719Q216.17999267578125 703.0 208.97999572753906 703.0Q201.77999877929688 703.0 195.56999969482422 705.5199890136719Q189.36000061035156 708.0399780273438 184.7699966430664 712.8099975585938Q180.17999267578125 717.5800170898438 177.56999969482422 724.1499938964844Q174.9600067138672 730.719970703125 174.9600067138672 739.0Q174.9600067138672 747.0999755859375 177.56999969482422 753.7599792480469Q180.17999267578125 760.4199829101562 184.7699966430664 765.1900024414062Q189.36000061035156 769.9600219726562 195.56999969482422 772.4800109863281Q201.77999877929688 775.0 208.97999572753906 775.0Z" fill="none" stroke="#4E8BEF" stroke-opacity=".55" stroke-width="3" clip-path="url(#cwGO)"/><path d="M323.0 802.0V676.0H379.3399963378906Q406.8800048828125 676.0 421.72998046875 688.510009765625Q433.3872375488281 698.3303833007812 435.8935546875 713.752197265625Q436.0735168457031 713.324462890625 436.260009765625 712.9000244140625Q441.4800109863281 701.02001953125 450.9300079345703 692.1100158691406Q460.3800048828125 683.2000122070312 473.1600036621094 678.3399963378906Q485.94000244140625 673.47998046875 501.05999755859375 673.47998046875Q516.3599853515625 673.47998046875 529.0499877929688 678.3399963378906Q541.739990234375 683.2000122070312 551.1000061035156 692.1100158691406Q560.4600219726562 701.02001953125 565.77001953125 712.9000244140625Q571.0800170898438 724.780029296875 571.0800170898438 739.0Q571.0800170898438 753.219970703125 565.77001953125 765.1899719238281Q560.4600219726562 777.1599731445312 551.1000061035156 785.97998046875Q541.739990234375 794.7999877929688 529.0499877929688 799.6600036621094Q516.3599853515625 804.52001953125 501.05999755859375 804.52001953125Q485.94000244140625 804.52001953125 473.1600036621094 799.6600036621094Q460.3800048828125 794.7999877929688 450.9300079345703 785.8899841308594Q441.4800109863281 776.97998046875 436.260009765625 765.0999755859375Q432.1152648925781 755.6671142578125 431.2615051269531 744.759033203125Q430.548583984375 746.0458374023438 429.739990234375 747.280029296875Q423.44000244140625 757.0 411.9200134277344 762.4000244140625L439.1000061035156 802.0H400.94000244140625L378.0799865722656 768.52001953125H358.6400146484375V802.0ZM571.1199951171875 802.0V676.0H635.5599975585938Q660.4000244140625 676.0 672.6400146484375 685.0899963378906Q684.8800048828125 694.1799926757812 684.8800048828125 708.9400024414062Q684.8800048828125 718.6599731445312 679.8400268554688 725.8599853515625Q675.3400268554688 732.3400268554688 667.780029296875 736.2999877929688Q669.0399780273438 736.6599731445312 670.1199951171875 737.02001953125Q680.02001953125 741.1599731445312 685.510009765625 748.8099975585938Q691.0 756.4600219726562 691.0 767.4400024414062Q691.0 783.8200073242188 677.7699890136719 792.9100036621094Q664.5399780273438 802.0 639.1599731445312 802.0ZM501.05999755859375 775.0Q508.260009765625 775.0 514.4700012207031 772.4800109863281Q520.6799926757812 769.9600219726562 525.2699890136719 765.1900024414062Q529.8599853515625 760.4199829101562 532.4700012207031 753.7599792480469Q535.0800170898438 747.0999755859375 535.0800170898438 739.0Q535.0800170898438 730.719970703125 532.4700012207031 724.1499938964844Q529.8599853515625 717.5800170898438 525.2699890136719 712.8099975585938Q520.6799926757812 708.0399780273438 514.4700012207031 705.5199890136719Q508.260009765625 703.0 501.05999755859375 703.0Q493.8599853515625 703.0 487.6499938964844 705.5199890136719Q481.44000244140625 708.0399780273438 476.8500061035156 712.8099975585938Q472.260009765625 717.5800170898438 469.65000915527344 724.1499938964844Q467.0400085449219 730.719970703125 467.0400085449219 739.0Q467.0400085449219 747.0999755859375 469.65000915527344 753.7599792480469Q472.260009765625 760.4199829101562 476.8500061035156 765.1900024414062Q481.44000244140625 769.9600219726562 487.6499938964844 772.4800109863281Q493.8599853515625 775.0 501.05999755859375 775.0ZM358.6400146484375 740.97998046875H378.44000244140625Q389.6000061035156 740.97998046875 395.0899963378906 736.1199951171875Q400.5799865722656 731.260009765625 400.5799865722656 722.6199951171875Q400.5799865722656 713.7999877929688 395.0899963378906 708.9400024414062Q389.6000061035156 704.0800170898438 378.44000244140625 704.0800170898438H358.6400146484375ZM606.4000244140625 776.260009765625H636.280029296875Q645.4600219726562 776.260009765625 650.2300109863281 773.1100158691406Q655.0 769.9600219726562 655.0 763.4800109863281Q655.0 757.0 650.2300109863281 753.8500061035156Q645.4600219726562 750.7000122070312 636.280029296875 750.7000122070312H606.4000244140625ZM606.4000244140625 726.0399780273438H630.8800048828125Q639.8800048828125 726.0399780273438 644.3800048828125 722.97998046875Q648.8800048828125 719.9199829101562 648.8800048828125 713.7999877929688Q648.8800048828125 707.6799926757812 644.3800048828125 704.7099914550781Q639.8800048828125 701.739990234375 630.8800048828125 701.739990234375H606.4000244140625Z" fill="url(#gWord)"/><path d="M323.0 802.0V676.0H379.3399963378906Q406.8800048828125 676.0 421.72998046875 688.510009765625Q433.3872375488281 698.3303833007812 435.8935546875 713.752197265625Q436.0735168457031 713.324462890625 436.260009765625 712.9000244140625Q441.4800109863281 701.02001953125 450.9300079345703 692.1100158691406Q460.3800048828125 683.2000122070312 473.1600036621094 678.3399963378906Q485.94000244140625 673.47998046875 501.05999755859375 673.47998046875Q516.3599853515625 673.47998046875 529.0499877929688 678.3399963378906Q541.739990234375 683.2000122070312 551.1000061035156 692.1100158691406Q560.4600219726562 701.02001953125 565.77001953125 712.9000244140625Q571.0800170898438 724.780029296875 571.0800170898438 739.0Q571.0800170898438 753.219970703125 565.77001953125 765.1899719238281Q560.4600219726562 777.1599731445312 551.1000061035156 785.97998046875Q541.739990234375 794.7999877929688 529.0499877929688 799.6600036621094Q516.3599853515625 804.52001953125 501.05999755859375 804.52001953125Q485.94000244140625 804.52001953125 473.1600036621094 799.6600036621094Q460.3800048828125 794.7999877929688 450.9300079345703 785.8899841308594Q441.4800109863281 776.97998046875 436.260009765625 765.0999755859375Q432.1152648925781 755.6671142578125 431.2615051269531 744.759033203125Q430.548583984375 746.0458374023438 429.739990234375 747.280029296875Q423.44000244140625 757.0 411.9200134277344 762.4000244140625L439.1000061035156 802.0H400.94000244140625L378.0799865722656 768.52001953125H358.6400146484375V802.0ZM571.1199951171875 802.0V676.0H635.5599975585938Q660.4000244140625 676.0 672.6400146484375 685.0899963378906Q684.8800048828125 694.1799926757812 684.8800048828125 708.9400024414062Q684.8800048828125 718.6599731445312 679.8400268554688 725.8599853515625Q675.3400268554688 732.3400268554688 667.780029296875 736.2999877929688Q669.0399780273438 736.6599731445312 670.1199951171875 737.02001953125Q680.02001953125 741.1599731445312 685.510009765625 748.8099975585938Q691.0 756.4600219726562 691.0 767.4400024414062Q691.0 783.8200073242188 677.7699890136719 792.9100036621094Q664.5399780273438 802.0 639.1599731445312 802.0ZM501.05999755859375 775.0Q508.260009765625 775.0 514.4700012207031 772.4800109863281Q520.6799926757812 769.9600219726562 525.2699890136719 765.1900024414062Q529.8599853515625 760.4199829101562 532.4700012207031 753.7599792480469Q535.0800170898438 747.0999755859375 535.0800170898438 739.0Q535.0800170898438 730.719970703125 532.4700012207031 724.1499938964844Q529.8599853515625 717.5800170898438 525.2699890136719 712.8099975585938Q520.6799926757812 708.0399780273438 514.4700012207031 705.5199890136719Q508.260009765625 703.0 501.05999755859375 703.0Q493.8599853515625 703.0 487.6499938964844 705.5199890136719Q481.44000244140625 708.0399780273438 476.8500061035156 712.8099975585938Q472.260009765625 717.5800170898438 469.65000915527344 724.1499938964844Q467.0400085449219 730.719970703125 467.0400085449219 739.0Q467.0400085449219 747.0999755859375 469.65000915527344 753.7599792480469Q472.260009765625 760.4199829101562 476.8500061035156 765.1900024414062Q481.44000244140625 769.9600219726562 487.6499938964844 772.4800109863281Q493.8599853515625 775.0 501.05999755859375 775.0ZM358.6400146484375 740.97998046875H378.44000244140625Q389.6000061035156 740.97998046875 395.0899963378906 736.1199951171875Q400.5799865722656 731.260009765625 400.5799865722656 722.6199951171875Q400.5799865722656 713.7999877929688 395.0899963378906 708.9400024414062Q389.6000061035156 704.0800170898438 378.44000244140625 704.0800170898438H358.6400146484375ZM606.4000244140625 776.260009765625H636.280029296875Q645.4600219726562 776.260009765625 650.2300109863281 773.1100158691406Q655.0 769.9600219726562 655.0 763.4800109863281Q655.0 757.0 650.2300109863281 753.8500061035156Q645.4600219726562 750.7000122070312 636.280029296875 750.7000122070312H606.4000244140625ZM606.4000244140625 726.0399780273438H630.8800048828125Q639.8800048828125 726.0399780273438 644.3800048828125 722.97998046875Q648.8800048828125 719.9199829101562 648.8800048828125 713.7999877929688Q648.8800048828125 707.6799926757812 644.3800048828125 704.7099914550781Q639.8800048828125 701.739990234375 630.8800048828125 701.739990234375H606.4000244140625Z" fill="none" stroke="#4E8BEF" stroke-opacity=".55" stroke-width="3" clip-path="url(#cwROB)"/><path d="M729.0 802.0V676.0H764.6400146484375V773.739990234375H822.3014526367188L865.4466552734375 676.0H900.5466918945312L956.3466796875 802.0H919.2666625976562L909.3666381835938 777.52001953125H856.086669921875L846.1866455078125 802.0ZM1012.3333129882812 804.52001953125Q997.393310546875 804.52001953125 984.7033081054688 799.75Q972.0133056640625 794.97998046875 962.7433166503906 786.1600036621094Q953.4733276367188 777.3400268554688 948.2533264160156 765.3700256347656Q943.0333251953125 753.4000244140625 943.0333251953125 739.0Q943.0333251953125 724.5999755859375 948.2533264160156 712.6299743652344Q953.4733276367188 700.6599731445312 962.7433166503906 691.8399963378906Q972.0133056640625 683.02001953125 984.7033081054688 678.25Q997.393310546875 673.47998046875 1012.3333129882812 673.47998046875Q1029.7933349609375 673.47998046875 1043.5633544921875 679.5999755859375Q1049.892822265625 682.4130859375 1055.25244140625 686.3670654296875L1049.06005859375 676.0H1086.6800537109375L1116.3800048828125 726.0399780273438L1146.43994140625 676.0H1181.0L1132.760009765625 756.8200073242188V802.0H1097.1199951171875V756.4600219726562L1063.419189453125 700.0394287109375L1043.8333740234375 717.760009765625Q1037.71337890625 710.5599975585938 1030.4233703613281 706.7799987792969Q1023.1333618164062 703.0 1014.1333618164062 703.0Q1006.393310546875 703.0 999.913330078125 705.5199890136719Q993.433349609375 708.0399780273438 988.8433532714844 712.8099975585938Q984.2533569335938 717.5800170898438 981.6433410644531 724.2400207519531Q979.0333251953125 730.9000244140625 979.0333251953125 739.0Q979.0333251953125 747.0999755859375 981.6433410644531 753.7599792480469Q984.2533569335938 760.4199829101562 988.8433532714844 765.1900024414062Q993.433349609375 769.9600219726562 999.913330078125 772.4800109863281Q1006.393310546875 775.0 1014.1333618164062 775.0Q1023.1333618164062 775.0 1030.4233703613281 771.2200012207031Q1037.71337890625 767.4400024414062 1043.8333740234375 760.239990234375L1066.5133056640625 780.760009765625Q1057.3333740234375 792.0999755859375 1043.5633544921875 798.3099975585938Q1029.7933349609375 804.52001953125 1012.3333129882812 804.52001953125ZM898.9266967773438 751.239990234375 882.7266845703125 710.9199829101562 866.5266723632812 751.239990234375Z" fill="url(#gWord)"/><path d="M729.0 802.0V676.0H764.6400146484375V773.739990234375H822.3014526367188L865.4466552734375 676.0H900.5466918945312L956.3466796875 802.0H919.2666625976562L909.3666381835938 777.52001953125H856.086669921875L846.1866455078125 802.0ZM1012.3333129882812 804.52001953125Q997.393310546875 804.52001953125 984.7033081054688 799.75Q972.0133056640625 794.97998046875 962.7433166503906 786.1600036621094Q953.4733276367188 777.3400268554688 948.2533264160156 765.3700256347656Q943.0333251953125 753.4000244140625 943.0333251953125 739.0Q943.0333251953125 724.5999755859375 948.2533264160156 712.6299743652344Q953.4733276367188 700.6599731445312 962.7433166503906 691.8399963378906Q972.0133056640625 683.02001953125 984.7033081054688 678.25Q997.393310546875 673.47998046875 1012.3333129882812 673.47998046875Q1029.7933349609375 673.47998046875 1043.5633544921875 679.5999755859375Q1049.892822265625 682.4130859375 1055.25244140625 686.3670654296875L1049.06005859375 676.0H1086.6800537109375L1116.3800048828125 726.0399780273438L1146.43994140625 676.0H1181.0L1132.760009765625 756.8200073242188V802.0H1097.1199951171875V756.4600219726562L1063.419189453125 700.0394287109375L1043.8333740234375 717.760009765625Q1037.71337890625 710.5599975585938 1030.4233703613281 706.7799987792969Q1023.1333618164062 703.0 1014.1333618164062 703.0Q1006.393310546875 703.0 999.913330078125 705.5199890136719Q993.433349609375 708.0399780273438 988.8433532714844 712.8099975585938Q984.2533569335938 717.5800170898438 981.6433410644531 724.2400207519531Q979.0333251953125 730.9000244140625 979.0333251953125 739.0Q979.0333251953125 747.0999755859375 981.6433410644531 753.7599792480469Q984.2533569335938 760.4199829101562 988.8433532714844 765.1900024414062Q993.433349609375 769.9600219726562 999.913330078125 772.4800109863281Q1006.393310546875 775.0 1014.1333618164062 775.0Q1023.1333618164062 775.0 1030.4233703613281 771.2200012207031Q1037.71337890625 767.4400024414062 1043.8333740234375 760.239990234375L1066.5133056640625 780.760009765625Q1057.3333740234375 792.0999755859375 1043.5633544921875 798.3099975585938Q1029.7933349609375 804.52001953125 1012.3333129882812 804.52001953125ZM898.9266967773438 751.239990234375 882.7266845703125 710.9199829101562 866.5266723632812 751.239990234375Z" fill="none" stroke="#4E8BEF" stroke-opacity=".55" stroke-width="3" clip-path="url(#cwLACY)"/><g fill="url(#gGoldText)"><path d="M450.0 906.0V828.0H472.0628662109375V906.0Z"/><path d="M505.0 906.0V828.0H523.162841796875L557.5942993164062 869.5628662109375V828.0H579.21142578125V906.0H561.048583984375L526.6171264648438 864.4371337890625V906.0Z"/><path d="M656.9000244140625 907.5599975585938Q647.6514282226562 907.5599975585938 639.7957153320312 904.6071472167969Q631.9400024414062 901.654296875 626.201416015625 896.1943054199219Q620.4628295898438 890.7343139648438 617.2314147949219 883.3243103027344Q614.0 875.914306640625 614.0 867.0Q614.0 858.085693359375 617.2314147949219 850.6756896972656Q620.4628295898438 843.2656860351562 626.201416015625 837.8056945800781Q631.9400024414062 832.345703125 639.7957153320312 829.3928527832031Q647.6514282226562 826.4400024414062 656.9000244140625 826.4400024414062Q667.7085571289062 826.4400024414062 676.2328491210938 830.2285766601562Q684.7571411132812 834.0171508789062 690.4400024414062 841.1485595703125L676.4000244140625 853.8514404296875Q672.6114501953125 849.394287109375 668.0985717773438 847.0542907714844Q663.585693359375 844.7142944335938 658.0142822265625 844.7142944335938Q653.2228393554688 844.7142944335938 649.21142578125 846.2742919921875Q645.2000122070312 847.8342895507812 642.3585815429688 850.7871398925781Q639.5171508789062 853.739990234375 637.9014282226562 857.8628540039062Q636.2857055664062 861.9857177734375 636.2857055664062 867.0Q636.2857055664062 872.0142822265625 637.9014282226562 876.1371459960938Q639.5171508789062 880.260009765625 642.3585815429688 883.2128601074219Q645.2000122070312 886.1657104492188 649.21142578125 887.7257080078125Q653.2228393554688 889.2857055664062 658.0142822265625 889.2857055664062Q663.585693359375 889.2857055664062 668.0985717773438 886.9457092285156Q672.6114501953125 884.605712890625 676.4000244140625 880.1485595703125L690.4400024414062 892.8514404296875Q684.7571411132812 899.8713989257812 676.2328491210938 903.7156982421875Q667.7085571289062 907.5599975585938 656.9000244140625 907.5599975585938Z"/><path d="M721.702880859375 907.0028686523438Q716.3543090820312 907.0028686523438 712.6771545410156 903.4371337890625Q709.0 899.8713989257812 709.0 894.4114379882812Q709.0 888.7285766601562 712.6771545410156 885.3300170898438Q716.3543090820312 881.9314575195312 721.702880859375 881.9314575195312Q727.0514526367188 881.9314575195312 730.7285766601562 885.3300170898438Q734.4057006835938 888.7285766601562 734.4057006835938 894.4114379882812Q734.4057006835938 899.8713989257812 730.7285766601562 903.4371337890625Q727.0514526367188 907.0028686523438 721.702880859375 907.0028686523438Z"/></g><rect x="30" y="849" width="382" height="23" rx="6" fill="url(#gGoldBar)"/><rect x="762" y="849" width="380" height="23" rx="6" fill="url(#gGoldBar)"/><g fill="#0B1F48"><path d="M116.69000244140625 985.5657348632812Q112.77714538574219 985.5657348632812 109.45357131958008 984.2928771972656Q106.12999725341797 983.02001953125 103.70214080810547 980.7100219726562Q101.27428436279297 978.4000244140625 99.93071365356445 975.28857421875Q98.58714294433594 972.1771240234375 98.58714294433594 968.5Q98.58714294433594 964.8228759765625 99.93071365356445 961.71142578125Q101.27428436279297 958.5999755859375 103.72571182250977 956.2899780273438Q106.17713928222656 953.97998046875 109.47714233398438 952.7071228027344Q112.77714538574219 951.4342651367188 116.64286041259766 951.4342651367188Q120.55571746826172 951.4342651367188 123.83214569091797 952.7071228027344Q127.10857391357422 953.97998046875 129.53642654418945 956.2899780273438Q131.9642791748047 958.5999755859375 133.33142852783203 961.6878356933594Q134.69857788085938 964.7756958007812 134.69857788085938 968.5Q134.69857788085938 972.1771240234375 133.33142852783203 975.3121337890625Q131.9642791748047 978.4471435546875 129.53642654418945 980.7335815429688Q127.10857391357422 983.02001953125 123.83214569091797 984.2928771972656Q120.55571746826172 985.5657348632812 116.69000244140625 985.5657348632812ZM142.94570922851562 985.0V952.0H157.22999572753906Q161.6614227294922 952.0 164.8671417236328 953.4378662109375Q168.07286071777344 954.875732421875 169.81714630126953 957.5628662109375Q171.56143188476562 960.25 171.56143188476562 963.9743041992188Q171.56143188476562 967.6514282226562 169.81714630126953 970.3385620117188Q168.07286071777344 973.0256958007812 164.8671417236328 974.4635620117188Q161.6614227294922 975.9014282226562 157.22999572753906 975.9014282226562H150.58285522460938V985.0ZM30.0 985.0V952.0H44.28428649902344Q48.71571350097656 952.0 51.92142868041992 953.4378662109375Q55.12714385986328 954.875732421875 56.871429443359375 957.5628662109375Q58.61571502685547 960.25 58.61571502685547 963.9743041992188Q58.61571502685547 967.6514282226562 56.871429443359375 970.3385620117188Q55.12714385986328 973.0256958007812 51.92142868041992 974.4635620117188Q48.71571350097656 975.9014282226562 44.28428649902344 975.9014282226562H37.637142181396484V985.0ZM66.5328598022461 985.0V952.0H91.47142791748047V958.1286010742188H74.12285614013672V965.2943115234375H89.44428253173828V971.2343139648438H74.12285614013672V978.8713989257812H92.08428192138672V985.0ZM210.44857788085938 985.0V952.0H235.38714599609375V958.1286010742188H218.03857421875V965.2943115234375H233.36000061035156V971.2343139648438H218.03857421875V978.8713989257812H236.0V985.0ZM179.47857666015625 985.0V952.0H187.11570739746094V978.7771606445312H203.66285705566406V985.0ZM116.64286041259766 979.0599975585938Q118.85857391357422 979.0599975585938 120.7207145690918 978.3057250976562Q122.58285522460938 977.5514526367188 123.99714279174805 976.1371459960938Q125.41143035888672 974.7228393554688 126.18928527832031 972.7899780273438Q126.9671401977539 970.8571166992188 126.9671401977539 968.5Q126.9671401977539 966.1428833007812 126.18928527832031 964.2100219726562Q125.41143035888672 962.2771606445312 124.02071380615234 960.8628540039062Q122.62999725341797 959.4485473632812 120.7442855834961 958.6942749023438Q118.85857391357422 957.9400024414062 116.64285659790039 957.9400024414062Q114.42713928222656 957.9400024414062 112.56499862670898 958.6942749023438Q110.7028579711914 959.4485473632812 109.28857040405273 960.8628540039062Q107.87428283691406 962.2771606445312 107.09642791748047 964.2100219726562Q106.31857299804688 966.1428833007812 106.31857299804688 968.5Q106.31857299804688 970.8099975585938 107.09642791748047 972.7664184570312Q107.87428283691406 974.7228393554688 109.26499938964844 976.1371459960938Q110.65571594238281 977.5514526367188 112.54142761230469 978.3057250976562Q114.42713928222656 979.0599975585938 116.64286041259766 979.0599975585938ZM150.58285522460938 969.6785888671875H156.8057098388672Q160.3414306640625 969.6785888671875 162.0857162475586 968.1700134277344Q163.8300018310547 966.6614379882812 163.8300018310547 963.9743041992188Q163.8300018310547 961.239990234375 162.0857162475586 959.7314147949219Q160.3414306640625 958.2228393554688 156.8057098388672 958.2228393554688H150.58285522460938ZM37.637142181396484 969.6785888671875H43.86000061035156Q47.395713806152344 969.6785888671875 49.13999938964844 968.1700134277344Q50.88428497314453 966.6614379882812 50.88428497314453 963.9743041992188Q50.88428497314453 961.239990234375 49.13999938964844 959.7314147949219Q47.395713806152344 958.2228393554688 43.86000061035156 958.2228393554688H37.637142181396484Z"/><path d="M482.69476318359375 985.0V952.0H489.01190185546875L501.36334228515625 972.5071411132812L513.5261840820312 952.0H519.7962036132812L519.8905029296875 985.0H512.7247314453125L512.6776123046875 965.2471313476562L502.9661865234375 981.5114135742188H499.5247497558594L489.8604736328125 965.5771484375V985.0ZM448.62237548828125 985.0V952.0H473.5609436035156V958.1286010742188H456.2123718261719V965.2943115234375H471.5338134765625V971.2343139648438H456.2123718261719V978.8713989257812H474.1737976074219V985.0ZM395.84619140625 985.5657348632812Q391.8861999511719 985.5657348632812 388.2561950683594 984.5050048828125Q384.6261901855469 983.4442749023438 382.41046142578125 981.7471313476562L385.0033264160156 975.9957275390625Q387.124755859375 977.5042724609375 390.0240478515625 978.470703125Q392.92333984375 979.4371337890625 395.8933410644531 979.4371337890625Q398.15618896484375 979.4371337890625 399.5469055175781 978.9892883300781Q400.9376220703125 978.5414428710938 401.5976257324219 977.7400207519531Q402.25762939453125 976.9385986328125 402.25762939453125 975.9014282226562Q402.25762939453125 974.5814208984375 401.22047424316406 973.8035583496094Q400.1833190917969 973.0256958007812 398.48619079589844 972.5307006835938Q396.7890625 972.0357055664062 394.73834228515625 971.5878601074219Q392.6876220703125 971.1400146484375 390.63690185546875 970.4800109863281Q388.586181640625 969.8200073242188 386.8890380859375 968.7828674316406Q385.19189453125 967.7457275390625 384.1311798095703 966.048583984375Q383.0704650878906 964.3514404296875 383.0704650878906 961.71142578125Q383.0704650878906 958.8828735351562 384.6026153564453 956.5492858886719Q386.134765625 954.2156982421875 389.2226257324219 952.8249816894531Q392.31048583984375 951.4342651367188 396.9776306152344 951.4342651367188Q400.08905029296875 951.4342651367188 403.10618591308594 952.1649780273438Q406.1233215332031 952.8956909179688 408.4333190917969 954.3571166992188L406.0762023925781 960.1557006835938Q403.7662048339844 958.835693359375 401.45619201660156 958.1992797851562Q399.14617919921875 957.5628662109375 396.9304656982422 957.5628662109375Q394.7147521972656 957.5628662109375 393.30047607421875 958.0814208984375Q391.8861999511719 958.5999755859375 391.27333068847656 959.4249877929688Q390.66046142578125 960.25 390.66046142578125 961.3342895507812Q390.66046142578125 962.6071166992188 391.69761657714844 963.3849792480469Q392.7347717285156 964.162841796875 394.4319152832031 964.63427734375Q396.1290588378906 965.105712890625 398.1797637939453 965.5771484375Q400.23046875 966.048583984375 402.28118896484375 966.6614379882812Q404.3319091796875 967.2742919921875 406.029052734375 968.3114318847656Q407.7261962890625 969.3485717773438 408.7869110107422 971.0457153320312Q409.8476257324219 972.7428588867188 409.8476257324219 975.335693359375Q409.8476257324219 978.1171264648438 408.2919006347656 980.4271240234375Q406.7361755371094 982.7371215820312 403.64833068847656 984.1514282226562Q400.56048583984375 985.5657348632812 395.84619140625 985.5657348632812ZM330.4356994628906 985.5657348632812Q326.4757080078125 985.5657348632812 322.84571838378906 984.5050048828125Q319.2157287597656 983.4442749023438 317.0 981.7471313476562L319.5928649902344 975.9957275390625Q321.71429443359375 977.5042724609375 324.6135711669922 978.470703125Q327.5128479003906 979.4371337890625 330.48284912109375 979.4371337890625Q332.7457275390625 979.4371337890625 334.1364288330078 978.9892883300781Q335.5271301269531 978.5414428710938 336.1871337890625 977.7400207519531Q336.8471374511719 976.9385986328125 336.8471374511719 975.9014282226562Q336.8471374511719 974.5814208984375 335.80999755859375 973.8035583496094Q334.7728576660156 973.0256958007812 333.0757141113281 972.5307006835938Q331.3785705566406 972.0357055664062 329.3278503417969 971.5878601074219Q327.2771301269531 971.1400146484375 325.22642517089844 970.4800109863281Q323.17572021484375 969.8200073242188 321.47857666015625 968.7828674316406Q319.78143310546875 967.7457275390625 318.72071838378906 966.048583984375Q317.6600036621094 964.3514404296875 317.6600036621094 961.71142578125Q317.6600036621094 958.8828735351562 319.192138671875 956.5492858886719Q320.7242736816406 954.2156982421875 323.8121337890625 952.8249816894531Q326.8999938964844 951.4342651367188 331.567138671875 951.4342651367188Q334.6785583496094 951.4342651367188 337.6957092285156 952.1649780273438Q340.7128601074219 952.8956909179688 343.0228576660156 954.3571166992188L340.66571044921875 960.1557006835938Q338.355712890625 958.835693359375 336.04571533203125 958.1992797851562Q333.7357177734375 957.5628662109375 331.52000427246094 957.5628662109375Q329.3042907714844 957.5628662109375 327.88999938964844 958.0814208984375Q326.4757080078125 958.5999755859375 325.86285400390625 959.4249877929688Q325.25 960.25 325.25 961.3342895507812Q325.25 962.6071166992188 326.2871398925781 963.3849792480469Q327.32427978515625 964.162841796875 329.02142333984375 964.63427734375Q330.71856689453125 965.105712890625 332.769287109375 965.5771484375Q334.82000732421875 966.048583984375 336.87071228027344 966.6614379882812Q338.9214172363281 967.2742919921875 340.6185607910156 968.3114318847656Q342.3157043457031 969.3485717773438 343.3764190673828 971.0457153320312Q344.4371337890625 972.7428588867188 344.4371337890625 975.335693359375Q344.4371337890625 978.1171264648438 342.8814239501953 980.4271240234375Q341.3257141113281 982.7371215820312 338.23785400390625 984.1514282226562Q335.1499938964844 985.5657348632812 330.4356994628906 985.5657348632812ZM540.9985961914062 985.5657348632812Q537.03857421875 985.5657348632812 533.4085693359375 984.5050048828125Q529.778564453125 983.4442749023438 527.5628662109375 981.7471313476562L530.1557006835938 975.9957275390625Q532.2771606445312 977.5042724609375 535.1764526367188 978.470703125Q538.0757446289062 979.4371337890625 541.0457153320312 979.4371337890625Q543.30859375 979.4371337890625 544.6993103027344 978.9892883300781Q546.0900268554688 978.5414428710938 546.75 977.7400207519531Q547.4099731445312 976.9385986328125 547.4099731445312 975.9014282226562Q547.4099731445312 974.5814208984375 546.3728332519531 973.8035583496094Q545.335693359375 973.0256958007812 543.6385498046875 972.5307006835938Q541.94140625 972.0357055664062 539.8907165527344 971.5878601074219Q537.8400268554688 971.1400146484375 535.789306640625 970.4800109863281Q533.7385864257812 969.8200073242188 532.0414428710938 968.7828674316406Q530.3442993164062 967.7457275390625 529.2835693359375 966.048583984375Q528.2228393554688 964.3514404296875 528.2228393554688 961.71142578125Q528.2228393554688 958.8828735351562 529.7550048828125 956.5492858886719Q531.2871704101562 954.2156982421875 534.375 952.8249816894531Q537.4628295898438 951.4342651367188 542.1300048828125 951.4342651367188Q545.241455078125 951.4342651367188 548.2585754394531 952.1649780273438Q551.2756958007812 952.8956909179688 553.585693359375 954.3571166992188L551.2285766601562 960.1557006835938Q548.9185791015625 958.835693359375 546.6085815429688 958.1992797851562Q544.298583984375 957.5628662109375 542.0828552246094 957.5628662109375Q539.8671264648438 957.5628662109375 538.4528503417969 958.0814208984375Q537.03857421875 958.5999755859375 536.4257202148438 959.4249877929688Q535.8128662109375 960.25 535.8128662109375 961.3342895507812Q535.8128662109375 962.6071166992188 536.8500061035156 963.3849792480469Q537.8871459960938 964.162841796875 539.5842895507812 964.63427734375Q541.2814331054688 965.105712890625 543.3321533203125 965.5771484375Q545.3828735351562 966.048583984375 547.43359375 966.6614379882812Q549.4843139648438 967.2742919921875 551.1814575195312 968.3114318847656Q552.8786010742188 969.3485717773438 553.9393005371094 971.0457153320312Q555.0 972.7428588867188 555.0 975.335693359375Q555.0 978.1171264648438 553.4442749023438 980.4271240234375Q551.8885498046875 982.7371215820312 548.8006896972656 984.1514282226562Q545.7128295898438 985.5657348632812 540.9985961914062 985.5657348632812ZM359.605224609375 985.0V973.2614135742188L346.82952880859375 952.0H354.9381103515625L363.7066650390625 966.6614379882812L372.56951904296875 952.0H380.06524658203125L367.24237060546875 973.30859375V985.0ZM423.88427734375 985.0V958.2228393554688H413.32427978515625V952.0H442.0814208984375V958.2228393554688H431.52142333984375V985.0Z"/><path d="M679.39453125 985.0V952.0H693.490234375Q700.3731079101562 952.0 704.1916809082031 955.18212890625Q708.01025390625 958.3642578125 708.01025390625 963.9743041992188Q708.01025390625 967.6514282226562 706.2659606933594 970.3150024414062Q704.5216674804688 972.9785766601562 701.3159790039062 974.3928833007812H701.268798828125L708.6231079101562 985.0H700.3731079101562L694.0559692382812 975.80712890625H687.0316772460938V985.0ZM855.7714233398438 985.0V952.0H869.8671264648438Q876.75 952.0 880.5685729980469 955.18212890625Q884.3871459960938 958.3642578125 884.3871459960938 963.9743041992188Q884.3871459960938 967.6514282226562 882.6428527832031 970.3150024414062Q880.8985595703125 972.9785766601562 877.69287109375 974.3928833007812H877.6456909179688L885.0 985.0H876.75L870.432861328125 975.80712890625H863.4085693359375V985.0ZM747.2864379882812 985.0 761.9949951171875 952.0H769.537841796875L784.2935791015625 985.0H776.279296875L773.3564453125 977.9285888671875H758.0349731445312L755.1121215820312 985.0ZM821.1654663085938 985.0V952.0H846.1040649414062V958.1286010742188H828.7554931640625V965.2943115234375H844.076904296875V971.2343139648438H828.7554931640625V978.8713989257812H846.7169189453125V985.0ZM717.0176391601562 985.0V952.0H741.9561767578125V958.1286010742188H724.6076049804688V965.2943115234375H739.9290771484375V971.2343139648438H724.6076049804688V978.8713989257812H742.5690307617188V985.0ZM656.008544921875 985.5657348632812Q652.095703125 985.5657348632812 648.8192749023438 984.3164367675781Q645.5428466796875 983.067138671875 643.114990234375 980.7571411132812Q640.6871337890625 978.4471435546875 639.3435668945312 975.3357238769531Q638.0 972.2243041992188 638.0 968.5Q638.0 964.7756958007812 639.3435668945312 961.6642761230469Q640.6871337890625 958.5528564453125 643.1385803222656 956.2428588867188Q645.5900268554688 953.932861328125 648.8900146484375 952.6835632324219Q652.1900024414062 951.4342651367188 656.1500244140625 951.4342651367188Q660.5343017578125 951.4342651367188 664.0464477539062 952.8956909179688Q667.55859375 954.3571166992188 669.9628295898438 957.1385498046875L665.0599975585938 961.664306640625Q663.2685546875 959.778564453125 661.1471252441406 958.8592834472656Q659.0256958007812 957.9400024414062 656.5271606445312 957.9400024414062Q654.1228637695312 957.9400024414062 652.1428527832031 958.6942749023438Q650.162841796875 959.4485473632812 648.7250061035156 960.8628540039062Q647.2871704101562 962.2771606445312 646.5093078613281 964.2100219726562Q645.7314453125 966.1428833007812 645.7314453125 968.5Q645.7314453125 970.8099975585938 646.5093078613281 972.7428588867188Q647.2871704101562 974.6757202148438 648.7250061035156 976.1135864257812Q650.162841796875 977.5514526367188 652.1192932128906 978.3057250976562Q654.0757446289062 979.0599975585938 656.432861328125 979.0599975585938Q658.6957397460938 979.0599975585938 660.817138671875 978.3528442382812Q661.6185913085938 978.0700073242188 662.3728637695312 977.69287109375V967.9814453125H669.3499755859375V981.3699951171875Q666.662841796875 983.3971557617188 663.1035766601562 984.4814453125Q659.5443115234375 985.5657348632812 656.008544921875 985.5657348632812ZM795.893798828125 985.0V958.2228393554688H785.3338012695312V952.0H814.0909423828125V958.2228393554688H803.5309448242188V985.0ZM687.0316772460938 969.7257080078125H693.2545166015625Q696.7902221679688 969.7257080078125 698.5345153808594 968.1935729980469Q700.27880859375 966.6614379882812 700.27880859375 963.9743041992188Q700.27880859375 961.239990234375 698.5345153808594 959.7314147949219Q696.7902221679688 958.2228393554688 693.2545166015625 958.2228393554688H687.0316772460938ZM863.4085693359375 969.7257080078125H869.6314086914062Q873.1671142578125 969.7257080078125 874.9114074707031 968.1935729980469Q876.6557006835938 966.6614379882812 876.6557006835938 963.9743041992188Q876.6557006835938 961.239990234375 874.9114074707031 959.7314147949219Q873.1671142578125 958.2228393554688 869.6314086914062 958.2228393554688H863.4085693359375ZM770.9521484375 972.1300048828125 765.7192993164062 959.5428466796875 760.4392700195312 972.1300048828125Z"/><path d="M915.0 985.0V952.0H929.095703125Q935.9785766601562 952.0 939.7971496582031 955.18212890625Q943.61572265625 958.3642578125 943.61572265625 963.9743041992188Q943.61572265625 967.6514282226562 941.8714294433594 970.3150024414062Q940.1271362304688 972.9785766601562 936.9214477539062 974.3928833007812H936.874267578125L944.2285766601562 985.0H935.9785766601562L929.6614379882812 975.80712890625H922.6371459960938V985.0ZM952.7849731445312 985.0V952.0H977.7235717773438V958.1286010742188H960.375V965.2943115234375H975.6964111328125V971.2343139648438H960.375V978.8713989257812H978.33642578125V985.0ZM1035.4263916015625 985.5657348632812Q1028.402099609375 985.5657348632812 1024.4421081542969 981.6528625488281Q1020.4821166992188 977.739990234375 1020.4821166992188 970.47998046875V952.0H1028.1192626953125V970.1971435546875Q1028.1192626953125 974.9114379882812 1030.0521240234375 976.9857177734375Q1031.9849853515625 979.0599975585938 1035.4735717773438 979.0599975585938Q1038.962158203125 979.0599975585938 1040.89501953125 976.9857177734375Q1042.827880859375 974.9114379882812 1042.827880859375 970.1971435546875V952.0H1050.3707275390625V970.47998046875Q1050.3707275390625 977.739990234375 1046.4107055664062 981.6528625488281Q1042.45068359375 985.5657348632812 1035.4263916015625 985.5657348632812ZM998.3956909179688 985.5657348632812Q994.4357299804688 985.5657348632812 990.8057250976562 984.5050048828125Q987.1757202148438 983.4442749023438 984.9600219726562 981.7471313476562L987.5528564453125 975.9957275390625Q989.6742553710938 977.5042724609375 992.5735473632812 978.470703125Q995.4728393554688 979.4371337890625 998.44287109375 979.4371337890625Q1000.7056884765625 979.4371337890625 1002.0964050292969 978.9892883300781Q1003.4871215820312 978.5414428710938 1004.1471252441406 977.7400207519531Q1004.80712890625 976.9385986328125 1004.80712890625 975.9014282226562Q1004.80712890625 974.5814208984375 1003.7699890136719 973.8035583496094Q1002.7328491210938 973.0256958007812 1001.0357055664062 972.5307006835938Q999.3385620117188 972.0357055664062 997.287841796875 971.5878601074219Q995.2371215820312 971.1400146484375 993.1864318847656 970.4800109863281Q991.1357421875 969.8200073242188 989.4385986328125 968.7828674316406Q987.741455078125 967.7457275390625 986.6807250976562 966.048583984375Q985.6199951171875 964.3514404296875 985.6199951171875 961.71142578125Q985.6199951171875 958.8828735351562 987.1521301269531 956.5492858886719Q988.6842651367188 954.2156982421875 991.7721252441406 952.8249816894531Q994.8599853515625 951.4342651367188 999.5271606445312 951.4342651367188Q1002.6385498046875 951.4342651367188 1005.6557006835938 952.1649780273438Q1008.6728515625 952.8956909179688 1010.9828491210938 954.3571166992188L1008.625732421875 960.1557006835938Q1006.3157348632812 958.835693359375 1004.0057373046875 958.1992797851562Q1001.6957397460938 957.5628662109375 999.4800109863281 957.5628662109375Q997.2642822265625 957.5628662109375 995.8500061035156 958.0814208984375Q994.4357299804688 958.5999755859375 993.8228759765625 959.4249877929688Q993.2100219726562 960.25 993.2100219726562 961.3342895507812Q993.2100219726562 962.6071166992188 994.2471618652344 963.3849792480469Q995.2843017578125 964.162841796875 996.9814453125 964.63427734375Q998.6785888671875 965.105712890625 1000.7293090820312 965.5771484375Q1002.780029296875 966.048583984375 1004.8307189941406 966.6614379882812Q1006.8814086914062 967.2742919921875 1008.5785522460938 968.3114318847656Q1010.2756958007812 969.3485717773438 1011.33642578125 971.0457153320312Q1012.3971557617188 972.7428588867188 1012.3971557617188 975.335693359375Q1012.3971557617188 978.1171264648438 1010.8414306640625 980.4271240234375Q1009.2857055664062 982.7371215820312 1006.1978454589844 984.1514282226562Q1003.1099853515625 985.5657348632812 998.3956909179688 985.5657348632812ZM1131.99853515625 985.5657348632812Q1128.03857421875 985.5657348632812 1124.4085693359375 984.5050048828125Q1120.778564453125 983.4442749023438 1118.5628662109375 981.7471313476562L1121.15576171875 975.9957275390625Q1123.277099609375 977.5042724609375 1126.1763916015625 978.470703125Q1129.07568359375 979.4371337890625 1132.045654296875 979.4371337890625Q1134.30859375 979.4371337890625 1135.6992797851562 978.9892883300781Q1137.0899658203125 978.5414428710938 1137.75 977.7400207519531Q1138.4100341796875 976.9385986328125 1138.4100341796875 975.9014282226562Q1138.4100341796875 974.5814208984375 1137.3728637695312 973.8035583496094Q1136.335693359375 973.0256958007812 1134.6385498046875 972.5307006835938Q1132.94140625 972.0357055664062 1130.8906860351562 971.5878601074219Q1128.8399658203125 971.1400146484375 1126.7892456054688 970.4800109863281Q1124.738525390625 969.8200073242188 1123.0413818359375 968.7828674316406Q1121.34423828125 967.7457275390625 1120.2835693359375 966.048583984375Q1119.222900390625 964.3514404296875 1119.222900390625 961.71142578125Q1119.222900390625 958.8828735351562 1120.7550048828125 956.5492858886719Q1122.287109375 954.2156982421875 1125.375 952.8249816894531Q1128.462890625 951.4342651367188 1133.1300048828125 951.4342651367188Q1136.241455078125 951.4342651367188 1139.2586059570312 952.1649780273438Q1142.2757568359375 952.8956909179688 1144.585693359375 954.3571166992188L1142.228515625 960.1557006835938Q1139.9185791015625 958.835693359375 1137.6085815429688 958.1992797851562Q1135.298583984375 957.5628662109375 1133.0828857421875 957.5628662109375Q1130.8671875 957.5628662109375 1129.452880859375 958.0814208984375Q1128.03857421875 958.5999755859375 1127.4257202148438 959.4249877929688Q1126.8128662109375 960.25 1126.8128662109375 961.3342895507812Q1126.8128662109375 962.6071166992188 1127.8499755859375 963.3849792480469Q1128.8870849609375 964.162841796875 1130.584228515625 964.63427734375Q1132.2813720703125 965.105712890625 1134.3320922851562 965.5771484375Q1136.3828125 966.048583984375 1138.4335327148438 966.6614379882812Q1140.4842529296875 967.2742919921875 1142.181396484375 968.3114318847656Q1143.8785400390625 969.3485717773438 1144.9392700195312 971.0457153320312Q1146.0 972.7428588867188 1146.0 975.335693359375Q1146.0 978.1171264648438 1144.4442749023438 980.4271240234375Q1142.8885498046875 982.7371215820312 1139.8007202148438 984.1514282226562Q1136.712890625 985.5657348632812 1131.99853515625 985.5657348632812ZM1095.9578857421875 985.0V958.2228393554688H1085.3978271484375V952.0H1114.155029296875V958.2228393554688H1103.594970703125V985.0ZM1061.048583984375 985.0V952.0H1068.6856689453125V978.7771606445312H1085.23291015625V985.0ZM922.6371459960938 969.7257080078125H928.8599853515625Q932.3956909179688 969.7257080078125 934.1399841308594 968.1935729980469Q935.88427734375 966.6614379882812 935.88427734375 963.9743041992188Q935.88427734375 961.239990234375 934.1399841308594 959.7314147949219Q932.3956909179688 958.2228393554688 928.8599853515625 958.2228393554688H922.6371459960938Z"/></g><rect x="272" y="945" width="10" height="46" rx="3" fill="url(#gGoldBar)"/><rect x="592" y="945" width="10" height="46" rx="3" fill="url(#gGoldBar)"/></g></svg>